<?xml version="1.0" standalone="no"?>
<!DOCTYPE svg PUBLIC "-//W3C//DTD SVG 20010904//EN"
 "http://www.w3.org/TR/2001/REC-SVG-20010904/DTD/svg10.dtd">
<svg version="1.0" xmlns="http://www.w3.org/2000/svg"
 width="350.000000pt" height="350.000000pt" viewBox="0 0 350.000000 350.000000"
 preserveAspectRatio="xMidYMid meet">
<metadata>
Created by potrace 1.16, written by Peter Selinger 2001-2019
</metadata>
<g transform="translate(0.000000,350.000000) scale(0.100000,-0.100000)"
fill="#000000" stroke="none">
<path d="M1214 3076 c-284 -141 -473 -240 -477 -250 -12 -31 -8 -52 16 -73 33
-30 917 -463 957 -469 30 -4 90 22 453 200 230 113 420 206 422 206 3 0 5 -80
5 -179 0 -165 2 -180 21 -205 23 -30 45 -33 77 -10 22 15 22 18 22 273 0 233
-2 259 -17 273 -10 8 -225 117 -478 242 -339 166 -470 226 -495 226 -25 -1
-174 -69 -506 -234z"/>
<path d="M1070 2413 c-21 -27 -22 -36 -18 -208 4 -200 15 -244 81 -314 69 -73
210 -147 353 -187 80 -22 295 -30 390 -14 220 35 423 152 485 277 22 44 24 63
27 240 4 183 3 192 -17 212 -12 12 -34 21 -51 21 -17 0 -130 -50 -284 -127
-239 -118 -258 -126 -313 -126 -54 0 -76 8 -317 126 -143 70 -271 127 -287
127 -18 0 -35 -9 -49 -27z"/>
<path d="M2611 2197 c-48 -24 -64 -60 -69 -150 -7 -125 -3 -128 116 -125 l97
3 3 104 c3 118 -6 143 -63 167 -42 17 -53 17 -84 1z"/>
<path d="M2205 1474 c-68 -35 -113 -104 -134 -206 -10 -45 -9 -72 3 -141 18
-105 12 -153 -28 -219 -104 -173 -478 -244 -701 -134 -124 62 -182 126 -225
251 -26 75 -65 141 -94 160 -60 40 -136 39 -162 0 -13 -20 -11 -36 20 -156 19
-74 41 -174 50 -223 9 -49 23 -97 31 -106 9 -10 54 -41 101 -69 47 -29 116
-82 154 -117 l68 -65 148 -34 c81 -19 204 -44 273 -55 168 -29 323 -62 454
-99 133 -37 271 -58 442 -67 116 -6 133 -5 148 10 15 16 17 45 17 271 0 290 8
266 -97 299 -64 21 -136 84 -168 145 -13 26 -43 71 -67 100 -97 120 -98 124
-119 322 -6 63 -16 122 -21 132 -11 21 -53 22 -93 1z"/>
<path d="M1260 1342 c-18 -15 -24 -33 -31 -98 -19 -189 -7 -256 62 -321 57
-53 169 -103 169 -75 0 4 -7 30 -16 57 -12 37 -16 85 -15 184 1 160 -8 199
-54 240 -41 36 -82 40 -115 13z"/>
<path d="M1574 1175 c-25 -25 -25 -26 -22 -181 2 -124 6 -157 18 -164 30 -19
178 -6 201 17 6 6 3 27 -6 52 -8 24 -15 63 -15 87 0 24 -5 67 -11 96 -22 102
-108 150 -165 93z"/>
</g>
</svg>
